<?xml version="1.0" standalone="no"?>
<!DOCTYPE svg PUBLIC "-//W3C//DTD SVG 20010904//EN"
 "http://www.w3.org/TR/2001/REC-SVG-20010904/DTD/svg10.dtd">
<svg version="1.0" xmlns="http://www.w3.org/2000/svg"
 width="669.000000pt" height="1280.000000pt" viewBox="0 0 669.000000 1280.000000"
 preserveAspectRatio="xMidYMid meet">

<g transform="translate(0.000000,1280.000000) scale(0.100000,-0.100000)"
fill="#000000" stroke="none">
<path d="M3120 10341 c-52 -16 -181 -73 -286 -126 -168 -84 -201 -105 -271
-169 -47 -44 -109 -117 -154 -182 -93 -135 -106 -159 -134 -259 -13 -44 -37
-120 -53 -170 -74 -225 -87 -282 -88 -405 -1 -52 -5 -119 -9 -149 -5 -33 -3
-92 4 -150 11 -85 10 -106 -7 -186 l-19 -90 -56 -6 c-111 -12 -142 -57 -141
-199 1 -81 6 -107 32 -175 56 -147 101 -240 126 -260 29 -24 42 -70 52 -180 3
-44 12 -91 19 -105 13 -24 66 -222 78 -286 3 -17 16 -48 29 -69 13 -21 37 -70
53 -109 19 -45 39 -75 54 -82 34 -17 86 -95 147 -223 51 -104 55 -118 49 -161
-6 -44 -45 -122 -45 -91 0 12 -2 12 -12 -1 -7 -9 -42 -21 -78 -27 -55 -9 -79
-8 -160 10 -52 11 -120 25 -150 30 -30 6 -98 22 -150 36 -76 20 -110 24 -171
20 -80 -5 -193 -43 -240 -81 -15 -12 -35 -26 -45 -33 -17 -10 -17 -12 -2 -12
9 -1 23 5 30 12 50 50 189 97 285 97 26 0 89 -11 142 -24 289 -73 428 -93 505
-73 32 9 32 12 1 -72 -27 -74 -38 -201 -26 -304 10 -91 25 -139 92 -284 17
-37 40 -90 50 -118 27 -68 31 -78 78 -176 52 -109 165 -231 256 -277 33 -16
77 -42 97 -56 34 -23 50 -26 165 -31 137 -7 167 -2 398 60 55 14 126 27 157
28 31 1 55 4 53 8 -2 3 19 28 48 56 222 215 293 308 355 463 130 326 122 298
132 441 11 153 6 182 -45 253 -19 27 -35 60 -35 73 0 13 -4 23 -9 23 -5 0 -20
26 -32 58 -29 74 -30 206 -2 261 39 78 123 189 147 195 14 3 48 28 76 56 64
63 151 233 158 313 3 35 12 60 27 77 67 75 150 251 190 405 14 55 33 122 41
149 16 55 18 73 7 62 -5 -4 -8 -11 -8 -14 -1 -12 -38 -117 -45 -127 -3 -5 -7
-19 -8 -30 -1 -32 -57 -194 -91 -265 -42 -89 -67 -126 -75 -108 -3 7 -4 4 -1
-8 3 -13 -2 -27 -14 -38 -20 -18 -20 -17 -15 91 5 88 10 119 32 168 26 59 27
64 24 227 -2 114 0 173 8 185 11 17 11 17 6 -1 -6 -16 -4 -17 9 -6 8 7 15 19
15 26 0 9 8 12 23 10 12 -3 22 -5 22 -6 0 -3 41 -11 58 -11 17 0 23 -14 10
-22 -5 -2 -3 -2 4 -1 6 2 21 -11 32 -29 27 -41 27 -22 1 21 -25 41 -76 72
-117 72 -18 0 -33 3 -33 8 0 15 29 139 49 212 38 138 81 402 81 500 0 25 -9
77 -19 115 -11 39 -24 95 -30 126 -5 31 -24 78 -40 105 -17 26 -31 56 -31 65
0 38 -74 259 -116 349 -50 104 -122 233 -167 295 -71 101 -223 232 -312 270
-109 46 -124 48 -345 51 -118 2 -285 6 -370 9 -151 5 -157 4 -250 -24z m412
-891 c20 -6 60 -27 89 -47 88 -60 125 -72 229 -74 55 -1 122 -9 160 -19 56
-16 71 -25 105 -66 91 -109 106 -120 175 -133 36 -7 71 -18 78 -23 6 -6 12
-31 12 -57 0 -45 22 -192 36 -240 6 -19 4 -22 -6 -16 -22 14 -4 -129 26 -199
60 -143 94 -266 94 -341 0 -35 -4 -67 -10 -70 -5 -3 -10 -12 -10 -18 0 -7 4
-6 10 3 7 12 10 8 10 -15 0 -21 -19 -59 -60 -120 -34 -49 -63 -91 -65 -93 -8
-8 -110 22 -145 43 -47 27 -81 42 -250 113 -154 64 -234 88 -315 95 -27 3 -63
9 -80 15 -81 28 -105 31 -208 27 -62 -1 -121 -6 -132 -9 l-20 -7 20 10 c11 5
36 14 55 19 30 9 32 10 9 11 -14 1 -50 -7 -80 -16 -30 -9 -56 -17 -59 -18 -3
0 -27 -6 -55 -13 -27 -7 -66 -14 -85 -17 -49 -6 -150 -39 -207 -68 -33 -17
-54 -22 -68 -16 -11 4 -33 8 -50 8 -35 1 -179 -52 -280 -102 -71 -35 -137 -55
-133 -40 8 30 -24 187 -68 330 -14 46 -27 89 -28 95 -1 7 -5 19 -9 25 -10 15
10 92 28 113 7 8 25 44 39 80 28 67 96 190 126 225 29 34 90 161 90 188 0 19
103 109 143 124 18 6 59 12 92 13 33 1 51 4 40 7 -11 3 -24 10 -30 15 -7 7 0
8 20 4 17 -4 51 -9 77 -13 62 -7 70 11 34 76 -29 55 -33 92 -11 114 14 14 96
37 131 37 8 0 12 4 9 10 -3 5 -20 7 -38 4 -32 -5 -31 -5 8 15 33 17 61 20 150
21 61 1 128 5 150 9 58 12 214 13 257 1z m-1444 -1019 c13 -8 21 -135 10 -146
-2 -3 -22 4 -43 15 -41 21 -91 27 -80 10 4 -6 10 -8 15 -5 5 3 11 1 15 -5 4
-6 11 -8 16 -4 14 8 50 -26 42 -39 -3 -6 -1 -7 5 -3 14 8 13 13 14 -121 0 -92
-16 -183 -29 -169 -3 3 -12 49 -19 103 l-13 98 4 -105 c2 -58 7 -118 10 -135
l6 -30 -17 29 c-9 16 -34 81 -55 145 -32 95 -39 130 -39 195 0 102 21 139 88
160 57 18 54 17 70 7z m2677 -201 c3 -6 -1 -7 -9 -4 -18 7 -21 14 -7 14 6 0
13 -4 16 -10z m-2703 -342 c-7 -7 -10 3 -10 29 1 37 1 38 10 10 7 -19 7 -32 0
-39z m2090 -1137 c-4 -68 0 -92 23 -163 15 -46 31 -87 36 -92 5 -6 9 -17 9
-25 0 -8 10 -26 23 -40 40 -44 51 -98 43 -215 -9 -126 -37 -228 -106 -381 -5
-11 -25 -56 -45 -100 -57 -126 -202 -324 -226 -309 -5 3 -6 -1 -3 -9 3 -8 -27
-44 -76 -91 -77 -73 -84 -78 -120 -74 -21 2 -37 1 -34 -3 2 -3 -9 -6 -24 -7
-15 0 -47 -5 -72 -11 -25 -6 -55 -14 -68 -16 -13 -3 -42 -12 -65 -20 -23 -8
-58 -16 -77 -19 -19 -2 -58 -9 -85 -14 -92 -19 -250 3 -289 40 -12 11 -34 27
-51 35 -16 8 -45 27 -64 40 -26 20 -30 28 -20 35 10 7 8 8 -7 4 -16 -5 -35 9
-85 61 -89 93 -110 130 -153 263 -21 63 -42 123 -47 133 -13 24 -77 200 -94
257 -29 103 -25 336 8 395 6 11 11 23 12 26 0 3 14 23 32 44 21 24 34 53 39
82 l6 44 32 -53 c17 -29 40 -73 51 -98 10 -25 27 -56 37 -69 26 -34 88 -78
123 -87 17 -4 43 -20 59 -35 61 -60 163 -74 246 -36 24 11 76 17 170 21 74 3
153 10 175 16 22 6 45 12 52 13 7 2 16 6 19 10 4 4 23 7 43 7 154 1 326 115
443 295 32 50 64 97 70 105 7 8 12 16 11 17 -2 2 49 102 53 103 0 0 -1 -36 -4
-79z"/>
<path d="M2610 8778 c-85 -12 -172 -37 -210 -60 -43 -26 -70 -89 -70 -164 0
-47 4 -63 16 -68 25 -10 30 -8 70 29 119 109 251 151 396 126 40 -7 80 -12 88
-13 8 0 23 -8 33 -16 9 -8 36 -16 60 -16 36 -1 42 2 45 22 3 17 -13 39 -60 86
-61 60 -66 63 -135 74 -81 13 -138 13 -233 0z"/>
<path d="M3841 8709 c-105 -18 -152 -59 -131 -114 5 -14 15 -25 22 -25 7 0 87
-2 178 -5 132 -4 183 -9 255 -29 49 -13 91 -30 93 -36 3 -7 14 -21 26 -32 11
-10 30 -28 41 -38 39 -37 55 -21 55 54 0 26 -10 63 -27 97 -25 49 -34 56 -87
77 -113 45 -318 70 -425 51z"/>
<path d="M2703 8568 c-2 -5 -14 -8 -26 -8 -27 0 -137 -42 -137 -52 0 -12 12
-10 44 7 16 9 35 14 42 11 7 -3 14 0 16 6 5 15 223 17 223 3 0 -5 -12 -11 -27
-11 -17 -1 -25 2 -21 9 3 5 2 7 -4 4 -5 -3 -40 -8 -77 -11 -41 -3 -84 -13
-108 -26 -21 -11 -43 -18 -49 -15 -5 3 -6 0 -3 -8 3 -8 -5 -24 -17 -36 -13
-12 -18 -21 -12 -21 6 0 16 7 23 15 7 8 17 12 22 9 5 -3 1 -12 -8 -18 -13 -10
-14 -15 -4 -21 9 -5 11 -4 6 3 -4 7 -3 12 3 12 18 0 61 -23 61 -32 0 -5 4 -7
9 -3 5 3 12 1 15 -4 9 -14 135 -38 181 -35 53 4 178 34 171 41 -3 3 -33 0 -66
-7 -33 -7 -63 -11 -65 -8 -3 2 -1 19 4 36 6 19 6 45 1 63 -9 30 -8 31 18 25
15 -4 53 -19 85 -35 31 -15 57 -24 57 -19 0 11 -87 54 -136 67 -53 14 -56 41
-4 41 52 0 106 -20 88 -32 -9 -7 -7 -8 8 -3 21 5 40 -16 35 -38 -1 -5 2 -6 7
-3 9 6 52 -46 52 -64 0 -5 4 -10 10 -10 12 0 3 24 -33 83 -29 48 -69 77 -107
77 -11 0 -20 3 -20 8 0 4 -57 7 -126 7 -69 0 -128 -3 -131 -7z m11 -75 c-4
-10 -8 -37 -9 -60 0 -24 -4 -43 -8 -43 -16 0 -62 28 -82 50 -20 22 -20 22 0
33 27 16 77 35 94 36 9 1 11 -4 5 -16z m124 -2 c21 -13 10 -46 -16 -49 -27 -4
-40 22 -22 43 14 17 20 18 38 6z"/>
<path d="M2967 8509 c7 -7 15 -10 18 -7 3 3 -2 9 -12 12 -14 6 -15 5 -6 -5z"/>
<path d="M3733 8484 c-29 -13 -53 -29 -53 -34 0 -15 11 -12 47 9 51 32 96 40
165 30 65 -9 109 -14 166 -17 18 -1 31 -5 29 -9 -3 -5 5 -9 18 -9 25 -2 45
-19 89 -77 34 -45 44 -42 21 5 -23 44 -55 78 -85 90 -51 19 -178 38 -260 38
-70 0 -94 -5 -137 -26z"/>
<path d="M3929 8451 c11 -7 4 -11 -25 -16 -112 -18 -215 -52 -229 -75 -9 -14
26 -69 41 -63 8 3 3 13 -13 29 -14 14 -22 29 -17 34 11 10 176 61 182 56 2 -2
0 -20 -3 -40 -6 -27 -12 -36 -28 -36 -30 0 -12 -13 25 -17 17 -2 36 -7 42 -12
16 -13 174 -14 216 -2 33 10 32 10 -14 5 -43 -5 -48 -4 -42 11 3 9 6 30 6 46
0 27 3 30 23 23 12 -3 34 -15 49 -26 20 -14 26 -15 22 -5 -3 8 -17 20 -32 27
-45 20 -132 49 -132 43 0 -3 -11 2 -25 11 -13 9 -32 16 -42 16 -15 0 -15 -2
-4 -9z m35 -47 c7 -19 -10 -44 -30 -44 -15 0 -28 35 -19 50 10 16 42 12 49 -6z"/>
<path d="M3065 8403 l-30 -14 30 6 c31 7 41 12 34 19 -2 2 -17 -3 -34 -11z"/>
<path d="M4311 8334 c-19 -13 -28 -24 -21 -24 13 0 80 38 80 46 0 10 -28 0
-59 -22z"/>
<path d="M3775 8340 c3 -5 10 -10 16 -10 5 0 9 5 9 10 0 6 -7 10 -16 10 -8 0
-12 -4 -9 -10z"/>
<path d="M3007 8326 c-12 -13 -66 -31 -122 -42 -99 -19 -136 -24 -186 -24 -57
0 -120 20 -146 46 -8 8 -21 14 -30 14 -26 0 4 -27 56 -52 67 -32 229 -32 324
0 37 12 73 20 79 16 7 -5 8 -2 3 6 -6 10 -3 12 13 8 12 -4 19 -2 16 3 -3 5 2
12 10 15 17 7 22 24 7 24 -5 0 -16 -6 -24 -14z"/>
<path d="M3720 8274 c0 -8 5 -12 10 -9 6 3 10 2 10 -3 0 -5 18 -17 40 -27 22
-10 37 -22 34 -26 -3 -5 4 -9 16 -9 12 0 18 -4 15 -10 -4 -6 1 -7 11 -3 13 5
15 3 9 -7 -5 -8 -4 -11 1 -7 11 6 107 -46 100 -54 -3 -3 4 -5 14 -5 11 0 20 3
20 7 0 9 -75 56 -155 99 -33 18 -72 41 -87 51 -32 23 -38 24 -38 3z"/>
<path d="M4288 8273 c23 -2 59 -2 80 0 20 2 1 4 -43 4 -44 0 -61 -2 -37 -4z"/>
<path d="M4194 8238 c-16 -4 -44 -6 -64 -4 -19 2 -26 1 -15 -1 16 -4 14 -7
-14 -19 -42 -18 -196 -20 -185 -2 4 7 3 8 -5 4 -68 -42 217 -28 302 15 11 6
25 6 36 -1 14 -7 22 -6 30 3 8 10 3 13 -23 13 -18 0 -46 -3 -62 -8z"/>
<path d="M3856 5432 c-3 -5 1 -9 9 -9 8 0 12 4 9 9 -3 4 -7 8 -9 8 -2 0 -6 -4
-9 -8z"/>
<path d="M4670 8177 c-24 -11 -22 -12 22 -15 l47 -3 6 -44 c7 -46 -3 -92 -37
-157 -10 -21 -14 -38 -9 -38 17 0 69 124 73 172 1 25 0 44 -4 42 -4 -2 -9 4
-13 15 -3 10 -13 22 -23 25 -9 3 -21 8 -27 10 -5 3 -21 -1 -35 -7z"/>
<path d="M4695 7901 c-6 -11 9 -23 19 -14 9 9 7 23 -3 23 -6 0 -12 -4 -16 -9z"/>
<path d="M4268 6539 c17 -5 32 -12 32 -15 0 -3 -15 -3 -32 0 -26 5 -23 2 15
-13 70 -28 155 -88 172 -121 8 -16 19 -46 24 -67 8 -36 9 -36 10 -8 2 66 -60
153 -125 177 -19 7 -34 15 -34 20 0 11 -56 38 -77 37 -10 0 -3 -5 15 -10z"/>
<path d="M1398 6453 c7 -3 16 -2 19 1 4 3 -2 6 -13 5 -11 0 -14 -3 -6 -6z"/>
<path d="M1305 6443 c-11 -2 -83 -19 -160 -38 -77 -19 -170 -41 -208 -50 -37
-8 -84 -23 -105 -34 -20 -10 -75 -31 -122 -46 -106 -35 -169 -66 -195 -96
l-20 -24 20 16 c34 28 100 58 176 79 41 11 108 33 149 49 41 17 131 44 200 62
250 64 334 88 310 87 -14 0 -34 -2 -45 -5z"/>
<path d="M4600 6415 c25 -8 65 -21 90 -31 36 -14 81 -18 230 -19 177 -2 190
-4 293 -34 125 -37 236 -78 255 -93 7 -6 15 -9 17 -6 12 12 -125 72 -233 103
-156 44 -181 48 -362 49 -127 2 -168 6 -230 24 -41 12 -81 22 -90 21 -8 0 5
-7 30 -14z"/>
<path d="M2341 6359 c-12 -35 -21 -68 -20 -73 0 -6 11 20 25 58 13 38 22 71
20 73 -2 2 -13 -24 -25 -58z"/>
<path d="M5525 6339 c-99 -14 -95 -17 15 -12 178 9 334 -27 474 -111 50 -29
124 -72 164 -95 137 -79 275 -220 326 -332 l16 -34 -6 33 c-20 116 -181 274
-404 398 -58 32 -118 68 -135 80 -71 51 -321 92 -450 73z"/>
<path d="M5408 6313 c7 -3 16 -2 19 1 4 3 -2 6 -13 5 -11 0 -14 -3 -6 -6z"/>
<path d="M2275 6240 c-3 -11 -3 -24 0 -30 3 -5 2 -10 -3 -10 -6 0 -17 -19 -25
-42 -21 -63 -7 -216 32 -341 17 -55 37 -131 45 -171 24 -115 63 -191 144 -281
23 -26 42 -51 42 -56 0 -4 30 -28 68 -52 37 -25 101 -72 142 -106 66 -53 190
-130 190 -118 0 3 -39 32 -87 65 -49 33 -124 88 -167 121 -44 34 -85 61 -92
61 -7 0 -16 5 -20 11 -4 8 1 9 17 5 13 -3 7 2 -13 11 -21 8 -38 22 -38 29 0 8
-4 14 -8 14 -12 0 -77 91 -105 146 -28 56 -38 89 -62 194 -9 41 -28 111 -43
155 -22 68 -26 98 -27 197 0 105 2 119 23 147 26 36 29 49 5 30 -15 -13 -16
-11 -9 14 7 31 1 37 -9 7z"/>
<path d="M4451 6215 c1 -19 18 -51 18 -35 0 8 -4 22 -9 30 -5 8 -9 11 -9 5z"/>
<path d="M2002 6155 c0 -16 2 -22 5 -12 2 9 2 23 0 30 -3 6 -5 -1 -5 -18z"/>
<path d="M4471 6144 c0 -11 3 -14 6 -6 3 7 2 16 -1 19 -3 4 -6 -2 -5 -13z"/>
<path d="M450 6130 c-8 -5 -10 -10 -5 -10 6 0 17 5 25 10 8 5 11 10 5 10 -5 0
-17 -5 -25 -10z"/>
<path d="M2015 6097 c3 -15 19 -56 35 -91 35 -77 53 -143 45 -163 -3 -9 -6
-66 -6 -127 -1 -95 3 -121 25 -181 37 -102 41 -143 21 -211 -17 -59 -52 -155
-85 -229 -35 -80 -50 -118 -47 -122 4 -3 33 59 92 197 38 90 65 191 65 248 0
22 -12 74 -27 114 -26 69 -28 82 -28 238 l0 165 -36 70 c-20 39 -41 81 -48 95
l-11 25 5 -28z"/>
<path d="M4485 5997 c0 -107 -3 -132 -28 -207 -59 -177 -154 -337 -261 -444
-74 -74 -82 -81 -181 -158 -33 -26 -81 -66 -106 -90 -46 -44 -169 -184 -169
-194 0 -3 44 39 98 93 53 54 115 112 137 128 22 16 83 67 136 112 149 127 220
218 294 378 74 158 97 245 96 355 0 52 -4 107 -8 122 -5 17 -8 -19 -8 -95z"/>
<path d="M345 6100 c-13 -6 -15 -9 -5 -9 8 0 22 4 30 9 18 12 2 12 -25 0z"/>
<path d="M1213 6050 c69 -111 92 -186 107 -350 13 -142 25 -161 15 -25 -14
196 -49 306 -130 400 -20 23 -18 17 8 -25z"/>
<path d="M214 6061 c-102 -40 -214 -107 -214 -128 0 -7 32 8 70 33 60 39 110
63 235 114 l20 9 -20 0 c-11 0 -52 -12 -91 -28z"/>
<path d="M1364 6005 c6 -37 22 -227 29 -340 2 -27 4 -5 5 50 2 98 -21 312 -34
324 -4 3 -4 -12 0 -34z"/>
<path d="M1620 5984 c0 -3 9 -40 19 -82 11 -43 22 -104 26 -137 8 -79 16 -118
22 -112 11 11 -50 337 -63 337 -2 0 -4 -3 -4 -6z"/>
<path d="M1462 5950 c0 -14 2 -19 5 -12 2 6 2 18 0 25 -3 6 -5 1 -5 -13z"/>
<path d="M1474 5800 c0 -52 1 -74 3 -47 2 26 2 68 0 95 -2 26 -3 4 -3 -48z"/>
<path d="M6575 5789 c33 -18 71 -40 84 -51 13 -10 27 -16 30 -12 8 8 -24 31
-93 65 -80 39 -97 37 -21 -2z"/>
<path d="M6521 5740 c0 -8 4 -22 9 -30 12 -18 12 -2 0 25 -6 13 -9 15 -9 5z"/>
<path d="M1473 5645 c0 -27 2 -38 4 -22 2 15 2 37 0 50 -2 12 -4 0 -4 -28z"/>
<path d="M5091 5674 c0 -11 3 -14 6 -6 3 7 2 16 -1 19 -3 4 -6 -2 -5 -13z"/>
<path d="M3 5655 c0 -29 3 -31 24 -9 9 8 23 12 32 9 8 -3 46 -10 83 -15 36 -4
71 -11 76 -14 6 -3 50 -18 99 -32 48 -14 92 -29 97 -35 6 -5 17 -9 25 -9 18 0
110 -46 228 -114 98 -56 116 -82 163 -234 59 -193 99 -307 156 -442 l57 -135
4 -160 c3 -101 10 -176 19 -204 17 -53 18 -64 4 -56 -6 4 -10 -6 -10 -23 0
-62 -269 -396 -302 -376 -6 4 -8 3 -5 -3 9 -14 -53 -74 -67 -66 -6 3 -8 2 -3
-2 9 -11 -41 -65 -60 -65 -8 0 -12 -4 -9 -9 7 -11 -39 -53 -49 -44 -4 5 -5 3
-2 -4 9 -14 -41 -55 -56 -46 -5 3 -7 2 -4 -4 4 -6 -6 -21 -21 -34 -90 -81
-155 -128 -164 -123 -6 4 -8 2 -5 -4 9 -13 -120 -95 -139 -88 -7 3 -13 0 -11
-6 1 -6 -31 -25 -71 -43 -71 -31 -100 -50 -91 -59 13 -14 323 152 374 200 11
11 61 54 110 96 99 84 451 437 479 480 10 15 22 26 26 23 5 -3 18 11 30 30 12
19 24 35 27 35 3 0 2 -21 -2 -47 -5 -35 -4 -45 4 -37 6 6 14 40 18 77 3 37 10
67 14 67 5 0 9 10 10 23 1 21 1 21 10 -3 5 -16 6 -3 1 35 -3 33 -7 152 -7 265
-1 172 -4 212 -19 250 -37 93 -148 419 -177 519 -58 203 -123 275 -288 317
-31 8 -71 24 -90 35 -24 14 -57 21 -105 23 -48 2 -91 12 -131 29 -60 25 -202
57 -255 57 -23 0 -27 -4 -27 -25z"/>
<path d="M4701 5654 c0 -11 3 -14 6 -6 3 7 2 16 -1 19 -3 4 -6 -2 -5 -13z"/>
<path d="M762 5649 c2 -8 19 -23 36 -34 17 -11 59 -38 92 -59 33 -21 63 -37
65 -34 5 5 -97 81 -159 118 -26 16 -37 19 -34 9z"/>
<path d="M5075 5570 c-4 -28 -5 -53 -2 -56 2 -3 7 19 11 47 4 28 5 53 3 56 -3
2 -8 -19 -12 -47z"/>
<path d="M1302 5555 c0 -16 2 -22 5 -12 2 9 2 23 0 30 -3 6 -5 -1 -5 -18z"/>
<path d="M5976 5545 c-9 -26 -7 -32 5 -12 6 10 9 21 6 23 -2 3 -7 -2 -11 -11z"/>
<path d="M1701 5524 c0 -11 3 -14 6 -6 3 7 2 16 -1 19 -3 4 -6 -2 -5 -13z"/>
<path d="M1318 5325 c3 -110 0 -215 -7 -269 -7 -48 -10 -90 -8 -93 3 -2 11 36
18 84 14 97 15 342 1 413 -6 30 -7 -16 -4 -135z"/>
<path d="M1711 5459 c-1 -26 21 -196 38 -302 6 -32 8 -71 5 -87 -4 -18 0 -39
11 -58 14 -23 16 -36 8 -58 -11 -31 15 -323 27 -304 5 9 0 92 -14 220 -3 30
-2 38 4 24 4 -11 11 -55 15 -98 4 -42 10 -75 12 -72 10 10 -19 255 -52 446
-19 107 -38 222 -43 255 -5 33 -10 48 -11 34z"/>
<path d="M5063 5445 c0 -22 2 -30 4 -17 2 12 2 30 0 40 -3 9 -5 -1 -4 -23z"/>
<path d="M5878 5348 c-68 -137 -141 -304 -152 -348 -9 -35 24 31 48 95 10 28
54 124 97 214 44 90 78 166 76 168 -2 2 -33 -56 -69 -129z"/>
<path d="M5336 5445 c-3 -9 -6 -22 -5 -28 0 -7 5 -1 10 12 5 13 8 26 5 28 -2
2 -6 -3 -10 -12z"/>
<path d="M1018 5423 c11 -16 39 -62 61 -103 28 -52 41 -68 41 -52 0 33 -66
147 -97 167 l-26 18 21 -30z"/>
<path d="M5321 5374 c0 -11 3 -14 6 -6 3 7 2 16 -1 19 -3 4 -6 -2 -5 -13z"/>
<path d="M4734 5195 c0 -88 2 -123 3 -77 2 46 2 118 0 160 -1 42 -3 5 -3 -83z"/>
<path d="M5305 5305 c-3 -26 -4 -49 -2 -51 3 -3 8 16 12 41 3 26 4 49 2 51 -3
3 -8 -16 -12 -41z"/>
<path d="M5292 5215 c0 -16 2 -22 5 -12 2 9 2 23 0 30 -3 6 -5 -1 -5 -18z"/>
<path d="M5281 5164 c0 -11 3 -14 6 -6 3 7 2 16 -1 19 -3 4 -6 -2 -5 -13z"/>
<path d="M1165 5110 c3 -35 10 -69 15 -74 14 -14 11 27 -6 89 l-13 50 4 -65z"/>
<path d="M1340 5068 c0 -18 -5 -50 -9 -72 -5 -21 -6 -35 -1 -30 12 13 29 134
18 134 -4 0 -8 -15 -8 -32z"/>
<path d="M3280 5080 c0 -5 5 -10 11 -10 5 0 7 5 4 10 -3 6 -8 10 -11 10 -2 0
-4 -4 -4 -10z"/>
<path d="M4395 5059 c-4 -6 -5 -12 -2 -15 2 -3 7 2 10 11 7 17 1 20 -8 4z"/>
<path d="M4365 4994 c-102 -237 -246 -690 -300 -939 -37 -171 -72 -373 -80
-465 -4 -54 -4 -54 4 -10 5 25 16 92 25 150 55 348 199 861 335 1194 22 55 39
102 36 104 -2 2 -11 -13 -20 -34z"/>
<path d="M1182 4970 c0 -30 4 -68 8 -85 6 -23 8 -15 8 35 0 36 -3 74 -8 85 -6
14 -8 4 -8 -35z"/>
<path d="M3051 4966 c2 -2 72 -23 154 -45 138 -38 162 -42 295 -45 80 -2 123
-2 95 0 -113 8 -238 28 -379 60 -147 33 -174 38 -165 30z"/>
<path d="M5691 4909 c-12 -35 -21 -68 -20 -73 0 -6 11 20 25 58 13 38 22 71
20 73 -2 2 -13 -24 -25 -58z"/>
<path d="M3200 4850 c0 -24 29 -38 40 -20 12 19 1 40 -21 40 -12 0 -19 -7 -19
-20z"/>
<path d="M5661 4804 c0 -11 3 -14 6 -6 3 7 2 16 -1 19 -3 4 -6 -2 -5 -13z"/>
<path d="M1215 4534 c-1 -57 3 -98 7 -91 10 15 10 184 1 190 -5 3 -8 -42 -8
-99z"/>
<path d="M6102 4503 c-74 -73 -159 -180 -149 -189 3 -4 19 14 34 39 33 50 64
86 143 163 30 29 52 54 48 54 -4 0 -38 -30 -76 -67z"/>
<path d="M1123 4508 c2 -7 15 -49 27 -93 24 -84 40 -114 40 -77 0 24 -58 182
-67 182 -3 0 -3 -6 0 -12z"/>
<path d="M1110 4435 c0 -27 2 -46 5 -43 8 8 9 77 2 85 -4 3 -7 -15 -7 -42z"/>
<path d="M5394 4335 c16 -159 16 -265 2 -488 -17 -264 -18 -303 -12 -296 3 2
12 119 21 259 17 256 14 509 -6 554 -7 15 -8 6 -5 -29z"/>
<path d="M5924 4277 c-6 -12 -27 -55 -48 -95 -21 -40 -37 -75 -35 -77 2 -2 27
41 56 96 28 54 48 99 45 99 -4 0 -12 -10 -18 -23z"/>
<path d="M1199 4270 c-3 -8 -2 -46 2 -85 7 -60 10 -315 4 -315 -1 0 -26 56
-55 125 -29 69 -55 124 -56 122 -2 -2 21 -71 51 -153 34 -93 55 -165 55 -191
0 -24 5 -43 10 -43 6 0 10 6 11 13 0 6 9 -17 20 -53 14 -48 19 -98 20 -195 1
-130 12 -303 24 -361 5 -22 2 -36 -10 -48 -12 -11 -15 -25 -11 -42 4 -14 2
-143 -4 -287 -15 -376 -16 -421 -7 -629 8 -179 8 -188 -10 -188 -16 0 -16 -2
3 -18 16 -12 24 -33 29 -74 3 -32 11 -58 16 -58 6 0 7 23 3 60 -5 48 -4 60 7
60 11 0 11 2 1 9 -34 21 -40 739 -8 1028 10 96 10 135 0 208 -7 50 -13 108
-12 130 0 36 1 37 9 15 15 -43 -1 257 -20 385 -11 66 -20 109 -21 95 -2 -25
-2 -25 -15 5 -10 22 -14 86 -14 230 0 188 -9 290 -22 255z"/>
<path d="M6587 4190 c-20 -4 -41 -10 -45 -15 -4 -4 7 -5 23 -2 45 9 121 17
110 13 -5 -3 -36 -12 -69 -21 -32 -9 -56 -18 -53 -21 3 -3 22 -1 44 5 21 5 50
13 66 16 15 3 27 12 27 20 0 16 -36 18 -103 5z"/>
<path d="M6508 4163 c7 -3 16 -2 19 1 4 3 -2 6 -13 5 -11 0 -14 -3 -6 -6z"/>
<path d="M6328 4133 c7 -3 16 -2 19 1 4 3 -2 6 -13 5 -11 0 -14 -3 -6 -6z"/>
<path d="M6455 4129 c26 -10 85 -11 85 -1 0 4 -24 7 -53 8 -34 1 -45 -1 -32
-7z"/>
<path d="M6225 4105 c-38 -14 -125 -52 -193 -85 -110 -54 -132 -70 -213 -150
-136 -134 -153 -193 -94 -311 14 -27 27 -49 30 -49 6 0 -9 40 -30 80 -36 70
-6 153 95 256 83 86 211 163 410 246 69 29 85 37 75 37 -5 0 -41 -11 -80 -24z"/>
<path d="M1938 4080 c-92 -72 -69 -291 32 -315 31 -7 73 22 96 67 24 46 22
146 -4 200 -32 65 -79 84 -124 48z"/>
<path d="M6650 3997 c-88 -25 -242 -77 -286 -97 -222 -100 -369 -185 -456
-266 -60 -56 -43 -58 22 -3 27 23 53 38 59 34 6 -3 9 0 5 8 -5 14 37 39 58 33
7 -1 10 -1 6 1 -12 7 12 25 80 61 34 19 67 30 74 26 7 -4 10 -3 5 1 -18 21
354 172 390 158 11 -4 14 -3 9 5 -10 16 7 15 23 0 10 -11 11 -10 6 5 -5 13 -2
17 13 17 12 0 24 5 27 11 10 16 4 17 -35 6z"/>
<path d="M1031 3904 c0 -11 3 -14 6 -6 3 7 2 16 -1 19 -3 4 -6 -2 -5 -13z"/>
<path d="M733 3825 c0 -8 4 -12 9 -9 5 3 6 10 3 15 -9 13 -12 11 -12 -6z"/>
<path d="M5780 3550 c0 -5 5 -10 10 -10 6 0 10 5 10 10 0 6 -4 10 -10 10 -5 0
-10 -4 -10 -10z"/>
<path d="M5580 3510 c-85 -14 -330 -119 -330 -140 0 -12 6 -13 28 0 132 72
269 122 342 124 62 1 138 -31 171 -73 11 -13 22 -21 26 -18 13 14 -80 87 -130
102 -28 8 -53 14 -56 14 -3 -1 -26 -5 -51 -9z"/>
<path d="M5780 3502 c0 -12 19 -26 26 -19 2 2 -2 10 -11 17 -9 8 -15 8 -15 2z"/>
<path d="M3972 3465 c0 -16 2 -22 5 -12 2 9 2 23 0 30 -3 6 -5 -1 -5 -18z"/>
<path d="M5822 3399 c0 -17 0 -29 1 -28 2 2 8 11 15 20 10 13 10 19 -1 28 -11
9 -14 5 -15 -20z"/>
<path d="M5840 3380 c0 -5 5 -10 11 -10 5 0 7 5 4 10 -3 6 -8 10 -11 10 -2 0
-4 -4 -4 -10z"/>
<path d="M5850 3352 c0 -4 4 -12 8 -17 8 -9 17 -47 36 -140 2 -11 4 1 5 27 1
26 -7 66 -19 92 -18 42 -30 58 -30 38z"/>
<path d="M5786 3213 c-20 -124 0 -309 59 -526 65 -243 71 -263 118 -358 65
-130 76 -186 54 -285 -18 -85 -16 -111 5 -43 7 24 13 87 13 139 0 95 0 96 -53
205 -36 75 -70 171 -107 304 -67 239 -90 381 -81 509 7 95 3 120 -8 55z"/>
<path d="M4351 2885 c-7 -16 -28 -60 -47 -98 -19 -37 -34 -73 -33 -80 0 -6 23
32 50 86 28 54 48 104 46 110 -3 7 -10 -1 -16 -18z"/>
<path d="M1141 2014 c0 -11 3 -14 6 -6 3 7 2 16 -1 19 -3 4 -6 -2 -5 -13z"/>
<path d="M3774 1965 c-38 -50 -23 -55 16 -5 17 22 27 40 21 40 -5 0 -22 -16
-37 -35z"/>
</g>
</svg>
